PathFileType	4	(X/Y/Z)	C:\Users\WrightLab\Desktop\Jo\P2_Trial37.trc
DataRate	CameraRate	NumFrames	NumMarkers	Units	OrigDataRate	OrigDataStartFrame	OrigNumFrames
100.00	100.00	       19	19	mm	100.00	141	       563
Frame#	Time	Headset_Front			Headset_Back			Headset_Left			Headset_Right			Left_Shoulder			Right_Shoulder			Sternum			C7			Left Elbow			Right Elbow			Left Wrist			Right Wrist			Left ASIS			Right ASIS			S2			Left Knee			Right Knee			Left Ankle			Right Ankle			
		X1	Y1	Z1	X2	Y2	Z2	X3	Y3	Z3	X4	Y4	Z4	X5	Y5	Z5	X6	Y6	Z6	X7	Y7	Z7	X8	Y8	Z8	X9	Y9	Z9	X10	Y10	Z10	X11	Y11	Z11	X12	Y12	Z12	X13	Y13	Z13	X14	Y14	Z14	X15	Y15	Z15	X16	Y16	Z16	X17	Y17	Z17	X18	Y18	Z18	X19	Y19	Z19	

141	1.400	-651.04852	1534.96509	-792.17627	-703.87714	499.41949	-1098.77063							-416.39957	1396.01721	-926.67566	-744.42108	1404.88843	-974.98401	-599.29285	1289.76563	-881.48285	-578.68610	1394.81714	-1063.33813	-310.91232	1043.46436	-927.68164	-845.26880	1080.62170	-1005.43195				-889.14990	844.36261	-916.04407	-573.32043	997.94543	-826.60852	-694.77130	972.52191	-873.31946	-282.91574	800.69421	-944.78052	-494.22540	429.46252	-799.09485				-498.58136	66.88809	-794.24615				
142	1.410	-706.45215	500.37360	-1083.49976										-418.07278	1398.44189	-919.87115	-746.01373	1407.55249	-967.51257	-601.61926	1291.61633	-873.02002	-579.96667	1396.61694	-1054.78442	-313.51480	1045.54993	-913.50244	-846.59674	1082.08191	-999.60632				-890.03760	845.88855	-910.16705	-575.78357	998.92786	-818.17993	-697.38995	974.72131	-866.15320	-287.94998	801.81006	-928.57025	-492.76184	430.20425	-793.69678				-498.73672	66.49281	-793.89313				
143	1.420	-581.04956	545.85944	-709.48633	-709.51526	500.45291	-1065.80005							-420.31519	1400.28271	-909.57404	-747.97058	1409.88831	-960.52997	-603.94287	1293.19067	-865.90070	-581.11603	1398.34302	-1046.39221	-315.73557	1047.77869	-901.74402	-847.75879	1083.77661	-992.92694				-891.48779	846.38550	-903.36792	-578.05035	1000.96735	-811.34082	-700.13879	976.47406	-856.88165	-291.75171	804.58630	-909.79266	-490.51712	430.08667	-789.54358				-497.83923	66.77429	-794.19641				
144	1.430	-658.57440	1539.25269	-767.19263	-509.58411	1078.34753	-1391.26172							-422.10092	1401.83325	-898.90088	-750.00909	1411.12219	-953.18738	-605.89355	1295.47021	-858.77612	-582.21906	1400.14319	-1038.46460	-318.33673	1049.36218	-890.14923	-848.82806	1085.44202	-986.36237				-892.89398	848.47241	-897.96899	-581.19788	1003.23914	-802.79413	-702.46613	978.93176	-849.95502	-298.23770	806.91449	-891.97607	-487.54837	430.44565	-784.32721				-497.12302	66.96170	-793.96606				
145	1.440				-660.84320	1540.75830	-759.19489							-424.71310	1403.74426	-890.78998	-751.72119	1413.27673	-946.18848	-608.16766	1296.60400	-850.30908	-583.29791	1402.17114	-1030.63281	-320.83585	1051.39844	-875.90326	-849.63739	1087.16101	-980.03552				-894.44861	849.97711	-892.33380	-582.88177	1006.08679	-793.80048	-705.36047	980.86792	-840.52234	-296.38217	811.90295	-857.30469	-486.40732	430.00073	-782.20441	-719.33844	496.56540	-1041.98962	-495.58298	67.50533	-793.55981				
146	1.450	-663.52539	1541.80005	-750.78217	-513.61865	1081.65247	-1377.42236							-426.52496	1405.78064	-881.02997	-753.04242	1414.72388	-938.71918	-610.15674	1298.50488	-843.05682	-584.39423	1404.06848	-1022.17694	-325.62881	1052.46667	-866.16315	-849.45410	1087.86804	-972.68341				-895.94116	851.23389	-885.80493	-585.19434	1006.99023	-784.18158	-708.28857	983.01697	-833.18933	-300.24722	816.41394	-842.00854	-484.02985	429.95816	-778.62732	-719.36304	501.26889	-1005.28436	-491.48138	70.75346	-790.47601				
147	1.460	-665.89362	1543.08313	-742.94550	-516.02728	1082.20178	-1369.24341							-428.26422	1408.05054	-872.93103	-754.74414	1416.82214	-932.39740	-612.04602	1300.27380	-835.15826	-585.51379	1405.45813	-1013.67120	-326.24326	1054.65112	-849.31256	-850.33466	1089.56897	-965.75751	-320.72812	726.38837	-758.27417	-898.62006	852.22058	-880.84320	-588.17883	1009.44214	-778.24646	-710.37219	985.07471	-825.43201	-304.04660	817.33868	-823.92340	-481.39401	430.07050	-775.87024	-725.01111	503.13312	-985.09265	-490.42407	70.23270	-791.06482	-828.04559	758.67261	-767.64496	
148	1.470	-518.30841	1084.54639	-1363.15588	-668.25439	1544.32581	-735.29211							-430.72635	1409.74829	-863.00055	-756.22144	1418.52271	-924.47552	-613.90454	1301.52698	-827.57941	-586.51196	1407.20447	-1005.91748	-327.60062	1057.52185	-836.43774	-851.26978	1091.53540	-959.49310				-899.38159	853.94324	-875.53729	-590.39325	1010.63727	-770.80054	-712.29883	985.87518	-815.72015	-314.81036	816.13342	-825.50269	-478.77884	429.99432	-773.10376	-730.78912	505.73141	-962.89935	-490.03278	70.11451	-790.81439				
149	1.480	-670.64972	1545.49402	-727.14008	-521.12457	1084.91577	-1354.61450							-432.46637	1411.22632	-852.42865	-758.00970	1420.23157	-917.23145	-615.36755	1303.06848	-820.08087	-587.54596	1409.07104	-997.79346	-330.06842	1060.47180	-823.11835	-852.52728	1092.98816	-952.49792				-901.46442	855.37854	-869.92743	-592.54413	1012.20490	-764.32306	-716.08936	989.22546	-809.80176	-319.65567	818.61035	-807.22107	-475.77170	430.28195	-771.11102	-737.22198	508.69370	-940.18127	-488.37961	69.37009	-790.74335				
150	1.490	-672.99225	1546.46411	-719.39661	-523.85791	1087.06909	-1349.19678							-434.36374	1412.93176	-844.70392	-759.41449	1421.98962	-910.47424	-618.24347	1305.21692	-813.28992	-588.66986	1410.34021	-989.35345	-332.75522	1062.85657	-810.61102	-853.71326	1094.66724	-945.20190				-903.12677	857.04755	-864.92822	-594.77081	1013.57904	-754.75616	-717.66583	990.05237	-800.38806	-323.63000	821.40796	-786.77661	-474.94122	430.15131	-769.26465	-743.63550	512.86920	-917.58124	-485.17963	70.37901	-791.62115				
151	1.500	-526.77246	1087.76086	-1341.62842	-434.31134	770.22937	-703.31079							-436.20569	1414.87732	-837.94800	-761.03949	1423.88574	-903.19122	-619.28076	1306.14819	-805.62531	-589.66217	1411.81018	-981.37531	-336.91858	1063.68591	-797.45160	-855.02264	1096.22241	-938.63702	-324.58170	706.19537	-714.57336	-905.60907	858.26581	-859.65851	-597.00970	1013.86841	-749.11865	-720.52435	992.15540	-793.28772	-328.18835	824.48254	-771.33160	-473.14877	429.38577	-766.13776	-750.98175	516.68512	-894.33514	-485.62634	68.45805	-795.20612	-834.76227	760.74609	-748.50531	
152	1.510	-677.48901	1548.43408	-703.81689	-529.96814	1088.33777	-1334.83765							-438.31891	1416.05652	-829.74103	-762.30109	1424.97620	-895.41772	-621.95355	1307.65759	-797.32465	-590.72681	1412.83679	-972.90662	-340.15167	1065.18835	-784.58649	-856.37524	1097.90723	-932.63354				-908.05225	859.45380	-854.74286	-598.70380	1016.44110	-737.10632	-722.36243	993.95099	-785.47235	-332.49307	827.74170	-753.16687	-468.98926	430.06259	-766.07544	-758.85297	521.02393	-871.83777	-482.49979	70.88885	-792.02240				
153	1.520	-679.80872	1549.11670	-696.14673										-440.14478	1417.01025	-818.36560	-763.71045	1426.43701	-888.05835	-623.42743	1308.58313	-789.33051	-591.89227	1413.85486	-964.81964	-343.87460	1066.50012	-772.54358	-857.94385	1099.14673	-925.77020				-910.74384	860.55914	-849.92542	-600.79321	1017.18005	-731.06030	-725.04620	995.08246	-777.04010	-337.89810	829.94647	-737.18994	-467.71219	429.00748	-763.46124	-766.38184	526.86047	-849.94849	-481.00131	71.25117	-793.53656				
154	1.530	-535.38861	1090.30774	-1320.39124	-753.32678	205.69357	-962.78339							-441.88940	1417.43787	-810.59998	-765.11298	1427.50537	-880.76337	-625.10156	1310.00830	-781.53101	-593.10773	1414.73877	-956.93958	-346.87189	1069.36145	-758.94489	-859.52325	1100.41968	-919.49414				-912.95697	861.47662	-844.94086	-602.69324	1018.60065	-723.46765	-726.95105	996.92432	-769.35205	-340.93701	834.78680	-717.85547	-464.12027	429.02591	-763.18201	-773.97644	532.11816	-827.25446	-479.40393	71.49039	-794.17865				
155	1.540	-682.87708	1549.01086	-679.79663	-762.45477	206.67476	-936.91083							-444.10962	1418.92798	-802.71906	-766.65527	1428.79736	-873.17273	-627.74249	1311.30994	-774.48260	-594.26245	1415.61145	-948.84125	-350.06079	1070.25928	-745.69562	-861.07855	1101.79407	-913.85699	-364.67151	741.87964	-604.69543	-914.89911	862.24854	-840.25476	-604.84650	1018.83917	-713.16602	-728.71362	997.58636	-760.99646	-345.47131	837.00775	-700.12231	-461.88516	428.90933	-763.22247	-780.97607	538.17938	-805.64703	-479.18423	70.30257	-797.56830	-409.53293	743.49316	-637.37701	
156	1.550	-686.09100	1550.39343	-672.24347	-769.74567	204.91768	-911.02350							-445.77023	1419.11304	-795.15027	-768.68768	1429.49426	-865.33081	-629.22614	1311.81152	-766.29156	-595.67877	1415.86694	-940.54669	-352.32971	1072.31311	-732.24561	-862.96307	1102.50745	-907.70697				-917.73877	863.49597	-835.68652	-607.54358	1018.72906	-706.07178	-730.90649	998.10431	-753.40656	-350.72650	840.82373	-669.83118	-458.06104	428.83038	-760.93958	-787.54645	544.78571	-785.50909	-476.90604	69.61990	-800.81940	-490.88147	59.33195	-788.75006	
157	1.560	-543.98669	1092.83948	-1302.59949										-447.48953	1419.36292	-786.18274	-770.21997	1430.11890	-857.75891	-631.48584	1311.57739	-757.26843	-597.18323	1416.16064	-932.21832	-356.12021	1072.82715	-718.60223	-864.72961	1103.25525	-901.24780				-920.51630	863.91888	-831.59216	-609.06738	1018.97119	-699.44989	-733.34937	998.73981	-745.40491	-354.41058	841.62189	-664.45905	-455.92313	428.31741	-760.42621	-794.00244	549.90314	-765.00513	-473.71436	71.71156	-798.02039				
158	1.570	-689.02472	1549.55420	-655.64630	-546.82892	1093.04211	-1295.44214							-448.92242	1419.69751	-777.65619	-771.63464	1430.56152	-849.80920	-634.12897	1312.62024	-749.41443	-598.73822	1416.16797	-923.87891	-358.80905	1074.10291	-704.58966	-866.64563	1103.73572	-895.15900				-923.07147	863.75439	-827.29382	-610.99139	1018.08807	-692.70392	-735.43365	998.99933	-737.12158	-354.35803	847.68884	-636.10919	-454.34479	428.44324	-758.24786	-799.96527	555.14880	-746.02869	-472.91446	71.65768	-798.96466				
159	1.580	-689.90393	1548.75684	-647.29456	-568.81488	934.37079	-948.40228							-451.07565	1418.76965	-768.84711	-773.56995	1430.67334	-842.08765	-635.69257	1312.06384	-740.87274	-600.42737	1416.25525	-915.46411	-361.91058	1075.96716	-692.53723	-868.76221	1103.88489	-888.57074	-402.30347	746.02209	-543.39539	-926.24542	863.73163	-822.58398	-613.29694	1018.41595	-685.42285	-738.06122	999.45844	-729.23724	-410.17252	773.13544	-546.39288	-452.07516	428.64822	-757.76361	-805.65839	559.83502	-728.01117	-472.21277	71.65957	-799.72229	-408.57007	742.47400	-568.06702	
